P3
12 12
255
0 0 0
23 0 0
46 0 0
69 0 0
93 0 0
116 0 0
139 0 0
162 0 0
186 0 0
209 0 0
232 0 0
255 0 0
0 23 0
23 23 0
46 23 0
69 23 0
93 23 0
116 23 0
139 23 0
162 23 0
186 23 0
209 23 0
232 23 0
255 23 0
0 46 0
23 46 0
46 46 0
69 46 0
93 46 0
116 46 0
139 46 0
162 46 0
186 46 0
209 46 0
232 46 0
255 46 0
0 69 0
23 69 0
46 69 0
69 69 0
93 69 0
116 69 0
139 69 0
162 69 0
186 69 0
209 69 0
232 69 0
255 69 0
0 93 0
23 93 0
46 93 0
69 93 0
93 93 0
116 93 0
139 93 0
162 93 0
186 93 0
209 93 0
232 93 0
255 93 0
0 116 0
23 116 0
46 116 0
69 116 0
93 116 0
116 116 0
139 116 0
162 116 0
186 116 0
209 116 0
232 116 0
255 116 0
0 139 0
23 139 0
46 139 0
69 139 0
93 139 0
116 139 0
139 139 0
162 139 0
186 139 0
209 139 0
232 139 0
255 139 0
0 162 0
23 162 0
46 162 0
69 162 0
93 162 0
116 162 0
139 162 0
162 162 0
186 162 0
209 162 0
232 162 0
255 162 0
0 186 0
23 186 0
46 186 0
69 186 0
93 186 0
116 186 0
139 186 0
162 186 0
186 186 0
209 186 0
232 186 0
255 186 0
0 209 0
23 209 0
46 209 0
69 209 0
93 209 0
116 209 0
139 209 0
162 209 0
186 209 0
209 209 0
232 209 0
255 209 0
0 232 0
23 232 0
46 232 0
69 232 0
93 232 0
116 232 0
139 232 0
162 232 0
186 232 0
209 232 0
232 232 0
255 232 0
0 255 0
23 255 0
46 255 0
69 255 0
93 255 0
116 255 0
139 255 0
162 255 0
186 255 0
209 255 0
232 255 0
255 255 0
